<?xml version="1.0" encoding="UTF-8"?>
<svg id="Capa_2" data-name="Capa 2" xmlns="http://www.w3.org/2000/svg" viewBox="0 0 735.01 46.15">
  <defs>
    <style>
      .cls-1 {
        fill: #fff;
        stroke-width: 0px;
      }
    </style>
  </defs>
  <g id="Capa_1-2" data-name="Capa 1">
    <g>
      <g>
        <path class="cls-1" d="m24.23.14C9.66.14,0,9.97,0,23.14s9.66,23.01,24.23,23.01,24.23-9.83,24.23-23.01S38.81.14,24.23.14Zm0,43.73c-9.4,0-16.24-6.76-16.24-20.72S14.84,2.42,24.23,2.42s16.24,6.76,16.24,20.72-6.85,20.72-16.24,20.72Z"/>
        <path class="cls-1" d="m209.87.14c-14.58,0-24.23,9.83-24.23,23.01s9.66,23.01,24.23,23.01,24.23-9.83,24.23-23.01S224.45.14,209.87.14Zm0,43.99c-9.66,0-16.24-7.02-16.24-20.99s6.59-20.99,16.24-20.99,16.24,7.03,16.24,20.99-6.59,20.99-16.24,20.99Z"/>
        <path class="cls-1" d="m162.89,2.42l3.16,2.28c.62.44.79.79.79,1.49v15.02h-22.57V6.19c0-.7.18-1.05.79-1.49l3.16-2.28v-.35h-14.4v.35l3.16,2.28c.62.44.79.79.79,1.49v33.9c0,.7-.18,1.05-.79,1.49l-3.16,2.28v.35h14.4v-.35l-3.16-2.28c-.62-.44-.79-.79-.79-1.49v-16.33h22.57v16.33c0,.7-.18,1.05-.79,1.49l-3.16,2.28v.35h14.4v-.35l-3.16-2.28c-.62-.44-.79-.79-.79-1.49V6.19c0-.7.18-1.05.79-1.49l3.16-2.28v-.35h-14.4v.35Z"/>
        <path class="cls-1" d="m82.02,2.51l2.37,1.58c1.58,1.05,1.58,1.67.53,3.34l-1.05,1.67c-1.32,2.11-4.13,6.5-5.62,9.04l-1.32,2.2c-1.05,1.76-1.93,3.25-1.93,3.25h0s-.79-1.49-1.32-2.28l-.62-.97c-2.46-3.86-5.79-8.78-8.69-12.73l-1.23-1.67c-.53-.7-.26-1.23.18-1.67l1.93-1.76v-.44h-14.23v.44l2.63,1.84c.97.7,1.76,1.49,2.46,2.46l1.14,1.49c1.93,2.46,7.47,10.01,10.71,15.19l1.05,1.67c.44.7.53,1.41.53,2.28h0v12.64c0,.7-.18,1.05-.79,1.49l-3.16,2.28v.35h14.4v-.35l-3.16-2.28c-.62-.44-.79-.79-.79-1.49v-12.38c0-1.05.35-1.84.88-2.72l1.32-2.2c3.07-5.09,5.79-9.31,8.69-13.7l1.05-1.58c1.23-1.84,2.11-2.55,3.51-3.51l2.2-1.49v-.44h-11.68v.44Z"/>
        <path class="cls-1" d="m115.38,20.59l-4.65-2.9c-3.6-2.28-6.23-4.57-6.23-8.25,0-4.04,2.9-6.76,7.03-6.76s6.85,2.11,8.96,5.53l1.41,2.28h.53V2.59s-3.86-2.11-9.75-2.11c-7.9,0-13.17,5.18-13.17,11.41,0,4.57,2.02,8.96,8.25,12.82l4.65,2.9c3.6,2.2,6.67,4.48,6.67,8.78,0,4.83-3.16,7.29-7.64,7.29s-7.73-1.67-10.54-6.23l-1.93-3.25h-.54v9.22s4.74,2.46,11.15,2.46c8.69,0,14.58-5,14.58-12.47,0-5.27-2.72-9.04-8.78-12.82Z"/>
      </g>
      <g>
        <path class="cls-1" d="m266.26,27.41v15.82h-7.41V.59h16.31c4.76,0,8.55,1.24,11.35,3.72,2.8,2.48,4.2,5.77,4.2,9.85s-1.37,7.44-4.12,9.76c-2.74,2.33-6.59,3.49-11.53,3.49h-8.82Zm0-5.98h8.9c2.64,0,4.65-.62,6.03-1.86,1.39-1.24,2.08-3.03,2.08-5.37s-.7-4.14-2.11-5.52c-1.41-1.38-3.34-2.08-5.8-2.12h-9.11v14.88Z"/>
        <path class="cls-1" d="m315.84,33.3h-16.52l-3.46,9.93h-7.7L304.27.59h6.65l16.14,42.65h-7.73l-3.49-9.93Zm-14.44-5.98h12.36l-6.18-17.69-6.18,17.69Z"/>
        <path class="cls-1" d="m347.56,26.83h-8.26v16.4h-7.41V.59h15c4.92,0,8.72,1.1,11.39,3.31,2.67,2.21,4.01,5.4,4.01,9.59,0,2.85-.69,5.24-2.06,7.17-1.38,1.93-3.29,3.41-5.76,4.44l9.58,17.76v.38h-7.94l-8.55-16.4Zm-8.26-5.98h7.62c2.5,0,4.45-.63,5.86-1.89,1.41-1.26,2.11-2.98,2.11-5.17s-.65-4.05-1.95-5.3-3.24-1.89-5.81-1.93h-7.82v14.29Z"/>
        <path class="cls-1" d="m398.67,6.56h-13.3v36.67h-7.35V6.56h-13.18V.59h33.83v5.98Z"/>
        <path class="cls-1" d="m438.1,43.23h-7.41l-19.01-30.26v30.26h-7.41V.59h7.41l19.07,30.37V.59h7.35v42.65Z"/>
        <path class="cls-1" d="m471.78,24.19h-17.52v13.06h20.47v5.98h-27.88V.59h27.68v5.98h-20.27v11.77h17.52v5.86Z"/>
        <path class="cls-1" d="m496.44,26.83h-8.26v16.4h-7.41V.59h15c4.92,0,8.72,1.1,11.39,3.31,2.67,2.21,4.01,5.4,4.01,9.59,0,2.85-.69,5.24-2.06,7.17-1.38,1.93-3.29,3.41-5.76,4.44l9.58,17.76v.38h-7.94l-8.55-16.4Zm-8.26-5.98h7.62c2.5,0,4.45-.63,5.86-1.89,1.41-1.26,2.11-2.98,2.11-5.17s-.65-4.05-1.95-5.3-3.24-1.89-5.81-1.93h-7.82v14.29Z"/>
      </g>
      <g>
        <path class="cls-1" d="m555.43,32.25c0-1.87-.66-3.32-1.98-4.33s-3.7-2.04-7.13-3.08c-3.44-1.04-6.17-2.19-8.2-3.46-3.89-2.44-5.83-5.62-5.83-9.55,0-3.44,1.4-6.27,4.2-8.49,2.8-2.23,6.44-3.34,10.91-3.34,2.97,0,5.61.55,7.94,1.64,2.32,1.09,4.15,2.65,5.48,4.67,1.33,2.02,1.99,4.26,1.99,6.72h-7.38c0-2.21-.7-3.94-2.09-5.19-1.4-1.25-3.39-1.87-5.99-1.87-2.42,0-4.3.51-5.64,1.55-1.34,1.03-2.01,2.47-2.01,4.32,0,1.56.72,2.85,2.17,3.89,1.45,1.04,3.83,2.05,7.15,3.03,3.32.98,5.98,2.1,8,3.36s3.49,2.7,4.42,4.33c.94,1.63,1.41,3.54,1.41,5.73,0,3.55-1.36,6.38-4.09,8.48s-6.42,3.15-11.09,3.15c-3.09,0-5.92-.57-8.51-1.71-2.59-1.14-4.6-2.72-6.03-4.73-1.43-2.01-2.15-4.35-2.15-7.03h7.41c0,2.42.8,4.3,2.4,5.62,1.6,1.33,3.9,1.99,6.88,1.99,2.58,0,4.52-.52,5.81-1.57,1.3-1.04,1.95-2.43,1.95-4.14Z"/>
        <path class="cls-1" d="m600.16,6.56h-13.3v36.67h-7.35V6.56h-13.18V.59h33.83v5.98Z"/>
        <path class="cls-1" d="m636.95.59v28.5c0,4.53-1.45,8.12-4.35,10.76-2.9,2.65-6.76,3.97-11.58,3.97s-8.76-1.3-11.63-3.91-4.31-6.22-4.31-10.85V.59h7.38v28.48c0,2.85.72,5.02,2.17,6.52s3.57,2.25,6.39,2.25c5.7,0,8.55-3,8.55-9.01V.59h7.38Z"/>
        <path class="cls-1" d="m644.85,43.23V.59h12.59c3.77,0,7.11.84,10.03,2.52,2.92,1.68,5.18,4.06,6.78,7.15,1.6,3.09,2.4,6.62,2.4,10.6v2.14c0,4.04-.81,7.6-2.42,10.66-1.61,3.07-3.91,5.43-6.88,7.09-2.98,1.66-6.39,2.49-10.24,2.49h-12.27Zm7.41-36.67v30.7h4.83c3.89,0,6.87-1.21,8.95-3.64,2.08-2.43,3.14-5.91,3.18-10.45v-2.37c0-4.62-1.01-8.15-3.02-10.58-2.01-2.44-4.93-3.65-8.76-3.65h-5.18Z"/>
        <path class="cls-1" d="m691.86,43.23h-7.38V.59h7.38v42.65Z"/>
        <path class="cls-1" d="m735.01,23.02c0,4.18-.72,7.85-2.17,11-1.45,3.15-3.51,5.58-6.19,7.26-2.68,1.69-5.78,2.53-9.27,2.53s-6.54-.84-9.24-2.53c-2.7-1.69-4.79-4.1-6.27-7.22-1.47-3.12-2.22-6.73-2.24-10.81v-2.4c0-4.16.74-7.83,2.21-11.01,1.47-3.18,3.55-5.62,6.24-7.31,2.68-1.69,5.76-2.53,9.24-2.53s6.56.83,9.24,2.5c2.68,1.67,4.76,4.07,6.22,7.21,1.46,3.13,2.21,6.78,2.23,10.94v2.37Zm-7.41-2.23c0-4.73-.89-8.35-2.68-10.87-1.79-2.52-4.32-3.78-7.6-3.78s-5.71,1.25-7.51,3.76c-1.81,2.51-2.73,6.06-2.77,10.65v2.46c0,4.69.91,8.31,2.74,10.87,1.83,2.56,4.36,3.84,7.6,3.84s5.8-1.25,7.57-3.75c1.77-2.5,2.65-6.15,2.65-10.95v-2.23Z"/>
      </g>
    </g>
  </g>
</svg>